<svg id="visual" viewBox="0 0 900 600" width="900" height="600" xmlns="http://www.w3.org/2000/svg" xmlns:xlink="http://www.w3.org/1999/xlink" version="1.1"><rect x="0" y="0" width="900" height="600" fill="#001220"></rect><defs><linearGradient id="grad1_0" x1="33.3%" y1="0%" x2="100%" y2="100%"><stop offset="20%" stop-color="#001220" stop-opacity="1"></stop><stop offset="80%" stop-color="#001220" stop-opacity="1"></stop></linearGradient></defs><defs><linearGradient id="grad2_0" x1="0%" y1="0%" x2="66.7%" y2="100%"><stop offset="20%" stop-color="#001220" stop-opacity="1"></stop><stop offset="80%" stop-color="#001220" stop-opacity="1"></stop></linearGradient></defs><g transform="translate(900, 0)"><path d="M0 486.7C-63.6 479.9 -127.2 473.1 -186.3 449.7C-245.4 426.3 -300 386.3 -337.3 337.3C-374.6 288.3 -394.6 230.3 -416.7 172.6C-438.7 114.9 -462.7 57.4 -486.7 0L0 0Z" fill="#FBAE3C"></path></g><g transform="translate(0, 600)"><path d="M0 -486.7C52.3 -455.5 104.5 -424.2 168.4 -406.5C232.2 -388.8 307.7 -384.6 344.2 -344.2C380.7 -303.8 378.2 -227.2 395.4 -163.8C412.7 -100.4 449.7 -50.2 486.7 0L0 0Z" fill="#FBAE3C"></path></g></svg>